<svg height="188" viewBox="0 0 366 188" width="366" xmlns="http://www.w3.org/2000/svg"><path d="m189.2679 111.7792a23.5357 23.5357 0 0 1 -14.9714 5.4442 23 23 0 0 1 -14.8282-5.4442h-27.9371a38.8986 38.8986 0 0 0 2.8654 5.7307.8231.8231 0 0 0 .6447.43.9946.9946 0 0 0 .7879-.1433 10.0713 10.0713 0 0 1 6.1605-2.0057 10.1912 10.1912 0 0 1 7.235 3.0086 10.3388 10.3388 0 0 1 .86 13.4671.9948.9948 0 0 0 -.1432.788 1.0432 1.0432 0 0 0 .43.6447 46.044 46.044 0 0 0 12.3926 5.2293.9948.9948 0 0 0 .788-.1433 1.2884 1.2884 0 0 0 .43-.6447 10.3011 10.3011 0 0 1 20.4156.0716.8231.8231 0 0 0 .43.6447.7718.7718 0 0 0 .5723.1431h.2149a46.1156 46.1156 0 0 0 12.4642-5.086.8234.8234 0 0 0 .43-.6447.8083.8083 0 0 0 -.2149-.788 10.3108 10.3108 0 0 1 8.1658-16.5473 10.0937 10.0937 0 0 1 6.3037 2.2206 1.4439 1.4439 0 0 0 .788.2149 1.0432 1.0432 0 0 0 .6447-.43 41.2019 41.2019 0 0 0 3.08-6.16h-28.0085zm-32.3779-33.1664a23.4059 23.4059 0 0 1 17.55-7.9513 22.9859 22.9859 0 0 1 17.407 7.9513h26.29a44.4666 44.4666 0 0 0 -3.8682-8.3811.8234.8234 0 0 0 -.6447-.43.8083.8083 0 0 0 -.788.2149 10.4683 10.4683 0 0 1 -6.3037 2.149 10.2225 10.2225 0 0 1 -8.023-16.5474 1.4437 1.4437 0 0 0 .2149-.788 1.0432 1.0432 0 0 0 -.43-.6447 46.3 46.3 0 0 0 -12.4643-5.1574.9946.9946 0 0 0 -.7879.1433 1.2882 1.2882 0 0 0 -.43.6447 10.279 10.279 0 0 1 -10.2436 8.8825 10.3869 10.3869 0 0 1 -10.172-8.8825 1.0426 1.0426 0 0 0 -.43-.6447.9946.9946 0 0 0 -.7879-.1433 43.6841 43.6841 0 0 0 -12.3927 5.1576.8234.8234 0 0 0 -.43.6447.9947.9947 0 0 0 .1433.788 10.3221 10.3221 0 0 1 -8.2379 16.4757 10.1409 10.1409 0 0 1 -6.16-2.0773.9946.9946 0 0 0 -.7879-.1433 1.0426 1.0426 0 0 0 -.6447.43 43.6505 43.6505 0 0 0 -3.94 8.5244h26.3613z" fill="#9a999a"/><g fill="#f08000"><path d="m173.6518 111.7792v-6.3754l-15.1863-.0716v-6.7336l15.2579-22.35h8.4528l-.0716 22.0632h3.4384v7.0917h-3.4384v6.3754zm1.0029-25.0718-7.7365 11.82h7.3783zm15.33 22.0632.0716-26.8626h7.1634v3.582a8.0151 8.0151 0 0 1 7.3066-4.0831 8.231 8.231 0 0 1 7.45 4.298c2.7937-2.9369 4.9427-4.298 8.31-4.298 6.0889 0 9.4557 3.4384 9.4557 9.6706l-.0717 17.6935h-7.7364l.0716-14.5416c0-3.725-.7879-5.4442-3.7249-5.4442-3.0086 0-4.5846 1.8625-4.6562 5.4442l-.0716 14.5416h-7.7365l.0717-14.5416c0-3.725-.788-5.4442-3.725-5.4442-3.0086 0-4.5845 1.8625-4.6562 5.4442l-.0716 14.5416zm65.5448-26.6477-.0716 26.8626h-7.3783v-3.5817a8.4045 8.4045 0 0 1 -7.7364 4.0831c-5.5874 0-9.1691-3.51-9.1691-9.6705l.0716-17.6935h7.9514l-.0717 14.5416c0 3.7249.788 5.4442 3.8682 5.4442s4.7279-1.8625 4.7279-5.4442l.0716-14.5416zm21.1319 8.1662c-1.5759-1.8625-4.871-2.8653-7.3782-2.8653-1.9341 0-3.3668.7163-3.3668 2.0773 0 4.5846 15.7594.86 15.7594 10.8167 0 7.02-6.2321 9.5273-12.0345 9.4557-5.8023 0-9.0974-1.6476-13.0373-5.3009l4.8711-4.2264c2.3639 2.2923 4.8711 3.7966 8.3811 3.7966 1.2894 0 4.2264-.2866 4.2981-2.7221 0-4.1548-15.7594-.9313-15.7594-10.3869 0-6.7336 5.8739-9.3124 11.3181-9.3124a21.6731 21.6731 0 0 1 11.7475 3.8686l-4.8 4.8zm6.4471-10.53v-6.2323h7.88v6.2322zm-.0717 29.2981.0717-26.8626h7.88l-.0717 26.8626zm37.1063-9.4556a13.8806 13.8806 0 0 1 -13.8253 10.2436 13.3385 13.3385 0 0 1 -10.172-4.37 14.6334 14.6334 0 0 1 -3.94-10.0287 14.0642 14.0642 0 0 1 4.1548-9.8854 13.5289 13.5289 0 0 1 9.9571-4.1548c6.7335 0 11.6762 3.725 13.8252 10.53h-8.3811a5.9133 5.9133 0 0 0 -5.5158-2.8654 6.0407 6.0407 0 0 0 -6.1605 6.3754c0 4.0831 2.5788 6.662 6.3754 6.662a6.1407 6.1407 0 0 0 5.2292-2.65l8.4528.1433z"/><path d="m135.1129 105.6187a10.5244 10.5244 0 0 1 -7.9513 3.1519 12.1865 12.1865 0 0 1 -8.3812-3.1519 13.7958 13.7958 0 0 1 -4.6562-10.6018 13.5094 13.5094 0 0 1 4.37-10.0287 12.567 12.567 0 0 1 8.9542-3.6533 9 9 0 0 1 7.5215 3.4384v-3.0086h7.88l-.0716 26.8626h-7.6648zm-6.2321-4.0115a6.4077 6.4077 0 0 0 6.3037-6.5186 6.5922 6.5922 0 1 0 -13.1806-.1433 6.53 6.53 0 0 0 6.8769 6.6619zm-15.7594-3.7249v-.788c0-10.0287-5.8024-16.1892-14.3984-16.1892a14.3593 14.3593 0 0 0 -9.9571 4.1549 13.8155 13.8155 0 0 0 -4.1547 9.8855 14.2073 14.2073 0 0 0 3.94 9.9571 13.3718 13.3718 0 0 0 10.172 4.37c6.0172 0 10.4585-2.7937 13.1089-8.4528h-8.7393a5.7867 5.7867 0 0 1 -4.0831 1.5044c-3.4384 0-5.5158-1.5044-6.16-4.37zm-14.3268-9.8855a6.26 6.26 0 0 1 6.3754 4.298h-12.5359c.5015-2.5788 2.8659-4.298 6.1605-4.298zm-15.6161 1.2178h-23.5675v6.7336h16.4757a11.7593 11.7593 0 1 1 -1.7192-9.8139h7.9514a18.8982 18.8982 0 1 0 1.2177 6.8057 21.8612 21.8612 0 0 0 -.3581-3.7254zm68.9832-7.45v3.6534c1.2894-2.7221 3.51-4.0115 7.9513-4.0115v7.3067h-1.433c-5.0144 0-6.0889 1.7192-6.0889 6.6619l-.0711 13.3239h-8.023l.0716-26.8627 7.5932-.0716z"/></g></svg>