<svg height="188" viewBox="0 0 366 188" width="366" xmlns="http://www.w3.org/2000/svg"><path d="m113.343 163.657h139.314v-139.314h-139.314z" fill="#b8232f"/><path d="m180.2137 135.7942 1.95-.2786v14.21h-1.95zm8.08 1.6718v9.1947c0 1.6718.2787 2.229 1.6718 2.229.5573 0 .2786 0 .8359-.2786l.2786 1.1145a2.9874 2.9874 0 0 1 -1.6718.5572c-.5572 0-1.1145-.2786-1.6717-.2786-.8359-.5572-1.1145-1.3931-1.1145-2.7863v-9.7519h-1.95v-1.6718h1.6717v-5.2942h1.95v5.2939h3.0649l-.5572 1.6718zm4.4581-39.5652c-1.6718 0-3.9008 1.1145-5.8512 3.0649v24.7979h-8.3586v-25.6336a26.4018 26.4018 0 0 0 -1.1146-8.3588l7.523-2.229a8.8224 8.8224 0 0 1 1.1145 4.4578c1.3931-.8359 2.229-1.6718 3.6222-2.5077a13.9039 13.9039 0 0 1 5.8512-1.3931 8.0178 8.0178 0 0 1 7.8015 5.0153 13.0876 13.0876 0 0 1 .5573 5.0153v25.6338h-8.3588v-22.8475c0-3.9008-.5573-5.0153-2.7863-5.0153zm23.962 4.1794c0-3.3435 1.95-5.2939 5.0153-5.2939 3.3435 0 5.0153 1.95 5.0153 5.2939s-1.95 5.0153-5.2939 5.0153c-2.5077 0-4.7367-1.3931-4.7367-5.0153zm8.3588 14.7673h-4.458c-.8359 0-1.3932-.2786-1.3932-.8359 0-.8359 1.1145-1.6717 3.3436-2.7863h1.3931c6.9657 0 11.981-4.458 11.981-10.5878a8.7452 8.7452 0 0 0 -1.95-5.8512c.5573 0 1.3932.2786 2.229.2786a8.0193 8.0193 0 0 0 5.8512-2.5076l-3.6221-5.8512a9.8732 9.8732 0 0 1 -6.6872 3.0649 12.2813 12.2813 0 0 1 -3.9008-.8359 22.7815 22.7815 0 0 0 -5.8512-.8359c-8.3588 0-13.6528 4.7367-13.6528 11.981 0 5.294 2.2291 8.3589 6.9657 9.752-5.2939 1.3931-5.8511 3.6222-5.8511 5.8512 0 2.5076.8358 3.9008 2.5076 4.7367a21.8374 21.8374 0 0 0 7.8016 1.1145h3.6222c3.3435 0 5.8511 1.1145 5.8511 4.1794a4.7627 4.7627 0 0 1 -1.95 3.6222 9.9632 9.9632 0 0 1 -5.2939 1.1145c-3.9008 0-6.13-1.3932-6.13-4.4581a6.1354 6.1354 0 0 1 .2786-2.229h-8.08a8.18 8.18 0 0 0 1.95 9.752c2.7863 3.0649 7.523 3.9008 12.26 3.9008 5.0153 0 10.0307-1.1145 12.8169-4.4581a10.9122 10.9122 0 0 0 2.5077-7.2443 10.0857 10.0857 0 0 0 -2.7863-7.523c-2.229-2.5076-4.7367-3.3435-9.752-3.3435zm-20.34 32.6c-.8359 0-1.3932-.5573-1.3932-1.6718a1.56 1.56 0 0 1 1.3932-1.6718c.8359 0 1.3931.5573 1.3931 1.6718a1.8068 1.8068 0 0 1 -1.3931 1.6718zm0-3.9008a1.95 1.95 0 1 0 1.95 1.95c-.2787-.8359-1.1145-1.95-1.95-1.95zm-.5573 1.95v-.5573h.2787c.2786 0 .5572 0 .5572.2786s-.2786.2787-.5572.2787zm1.3932-.2787c0-.5572-.2787-.5572-.8359-.5572h-.8359v2.229h.2786v-1.1145h.2787l.5572 1.1145h.2786l-.5572-1.1145c.5572 0 .8359 0 .8359-.5573zm-1.6718-11.4237-4.458 14.4886c-.8359 2.7863-1.95 4.7367-4.1795 5.294l-.5572-1.3932a4.4332 4.4332 0 0 0 2.5076-2.5076 12.6717 12.6717 0 0 1 -.2786-1.6718c-.2786-.8359-.8359-3.6222-1.3931-5.0153l-2.7863-8.9161 1.95-.8359 2.5076 9.1948c.2787 1.3931.8359 3.6221.8359 3.6221a30.5692 30.5692 0 0 0 .8359-3.0649l2.5076-9.1947zm-61.2982 10.3092a4.8094 4.8094 0 0 1 -.8358 1.1145 3.89 3.89 0 0 1 -2.5077.8359 2.6774 2.6774 0 0 1 -2.5076-1.6717 10.9142 10.9142 0 0 1 -.5573-3.6222 8.5279 8.5279 0 0 1 .8359-4.1794 2.8412 2.8412 0 0 1 2.229-1.3932 3.5951 3.5951 0 0 1 3.0649 1.3932v7.5229zm1.95-15.6031h-1.95v6.9657a3.9715 3.9715 0 0 0 -3.3435-1.6718 4.4934 4.4934 0 0 0 -2.5076.8359c-1.6718 1.3931-2.5077 3.6222-2.5077 6.4084 0 4.4581 1.95 7.2444 5.0153 7.2444a3.9718 3.9718 0 0 0 3.3435-1.6718 3.38 3.38 0 0 0 .2787 1.3931h1.95a17.3245 17.3245 0 0 1 -.2787-4.458v-15.0463zm30.3705 5.2939h3.3435l-.8359 1.6718h-2.7862v9.1947c0 1.6718.2786 2.229 1.6717 2.229.5573 0 .2787 0 .8359-.2786l.2786 1.1145a2.9871 2.9871 0 0 1 -1.6717.5572c-.5573 0-1.1145-.2786-1.6718-.2786-.8359-.5572-1.1145-1.3931-1.1145-2.7863v-9.752h-1.6718v-1.6718h1.6718v-5.2942h1.95v5.2939zm-11.981-44.58 8.3588-1.3931v35.943h-8.3588v-34.55zm-.8359-10.3092a5.5388 5.5388 0 0 1 5.2939-5.5726 5.3132 5.3132 0 0 1 5.0153 5.5726c0 3.0649-2.229 5.8512-5.2939 5.8512-2.7863 0-5.0153-2.5077-5.0153-5.8512zm6.9657 56.5615a3.534 3.534 0 0 1 .2786 1.6717v10.5879h-1.95v-9.4734c0-1.3931 0-1.95-.5572-2.229a2.1284 2.1284 0 0 0 -1.3932-.5572 5.8831 5.8831 0 0 0 -3.6221 1.95v10.3093h-1.95v-10.8668a7.3923 7.3923 0 0 0 -.5573-3.0649l1.95-.5573a5.7643 5.7643 0 0 1 .5573 2.2291c1.3931-1.3932 2.5076-2.2291 3.9008-2.2291a4.3165 4.3165 0 0 1 3.3435 2.2291zm-19.504 3.9008c0-2.7863 1.1146-4.4581 2.7863-4.4581a2.8952 2.8952 0 0 1 2.229 1.1145 11.7561 11.7561 0 0 1 .8359 3.3436zm3.065-6.13a4.8655 4.8655 0 0 0 -3.9008 1.95c-1.1146 1.3932-1.3932 3.0649-1.3932 5.294 0 4.7366 2.229 7.5229 5.5726 7.5229a5.6705 5.6705 0 0 0 4.1794-1.6717l-.8359-1.3932a4.4744 4.4744 0 0 1 -3.0649 1.3932 3.2009 3.2009 0 0 1 -3.0649-1.6718 5.058 5.058 0 0 1 -.5573-3.0649v-.2786h7.8016v-.2787c0-3.3435-.2786-4.7366-1.3931-5.8511a3.6382 3.6382 0 0 0 -3.3435-1.9505zm-23.1262 14.4887h1.95v-19.504h-1.95zm19.2254-51.8248c-1.1146 1.95-2.2291 2.5077-5.8512 2.5077h-4.7367v-14.489h5.5726c3.6221 0 5.8511 2.7863 5.8511 7.2443.2787 2.229 0 3.6222-.8358 4.7367zm4.458-17.5536c-2.5076-1.3931-4.7367-2.229-12.26-2.229h-11.4226v47.924h8.9166v-17.554h4.7367c4.7367 0 6.6871-.5573 8.6375-1.6718 4.7366-2.5077 7.5229-7.523 7.5229-13.9314.2786-5.5726-1.95-10.0306-6.13-12.5383z" fill="#fff"/></svg>