<svg height="188" viewBox="0 0 366 188" width="366" xmlns="http://www.w3.org/2000/svg"><path d="m230.6448 57.0659a2.9288 2.9288 0 0 1 2.9285 2.9284v5.8557a2.9285 2.9285 0 1 1 -5.8569 0v-5.8557a2.9288 2.9288 0 0 1 2.9284-2.9284" fill="#e71e63"/><path d="m242.3478 65.97a2.9288 2.9288 0 0 1 2.9284 2.9284v11.7102a2.9285 2.9285 0 0 1 -5.8569 0v-11.7106a2.9288 2.9288 0 0 1 2.9285-2.9284" fill="#8e3e96"/><path d="m254.0508 46.7389a2.9288 2.9288 0 0 1 2.9285 2.9285v23.4226a2.9285 2.9285 0 0 1 -5.8569 0v-23.4226a2.9288 2.9288 0 0 1 2.9284-2.9285" fill="#4554a4"/><path d="m265.7538 39.0836a2.9288 2.9288 0 0 1 2.9284 2.9284v11.7107a2.9285 2.9285 0 0 1 -5.8569 0v-11.7107a2.9288 2.9288 0 0 1 2.9285-2.9284" fill="#37a4dc"/><path d="m277.4568 48.2793a2.9288 2.9288 0 0 1 2.9285 2.9285v5.8553a2.9285 2.9285 0 0 1 -5.8569 0v-5.8553a2.9288 2.9288 0 0 1 2.9284-2.9285" fill="#05bbd3"/><g fill="#231f20"><path d="m159.2838 99.2692h-19.3233a2.9277 2.9277 0 1 0 0 5.8553h19.3233a2.9277 2.9277 0 1 0 0-5.8553"/><path d="m159.2838 122.6922h-19.3233a2.9277 2.9277 0 1 0 0 5.8553h19.3233a2.9277 2.9277 0 1 0 0-5.8553"/><path d="m92.5723 98.7246a2.9288 2.9288 0 0 0 -2.9285 2.9284v23.967a2.9285 2.9285 0 0 0 5.8569 0v-23.967a2.9288 2.9288 0 0 0 -2.9284-2.9284"/><path d="m139.96 116.8364h13.468a2.9277 2.9277 0 1 0 0-5.8553h-13.468a2.9277 2.9277 0 1 0 0 5.8553"/><path d="m82.0719 98.9237a2.7226 2.7226 0 0 0 -3.5132 1.5222l-6.9683 17.31-1.5348 3.8241-5.17-12.8832-3.25-8.257a2.7325 2.7325 0 0 0 -5.0778 2.0207l.9438 2.3421 1.9032 4.7548 4.31 10.7982 2.1838 5.4524a4.6876 4.6876 0 0 0 4.0227 2.74h.2822a4.6838 4.6838 0 0 0 4.01-2.7168l8.79-21.877.5848-1.4767a2.72 2.72 0 0 0 -1.516-3.554"/><path d="m213.0769 122.6929a8.7837 8.7837 0 1 1 8.7837-8.7837 8.7847 8.7847 0 0 1 -8.7837 8.7837m11.7122-23.9683a2.9288 2.9288 0 0 0 -2.9285 2.9284v.544a14.6394 14.6394 0 1 0 0 23.4228 2.9285 2.9285 0 0 0 5.8569 0v-23.9668a2.9288 2.9288 0 0 0 -2.9284-2.9284"/><path d="m262.8175 99.2692a11.7117 11.7117 0 0 0 -8.7838 3.9647 11.7114 11.7114 0 0 0 -14.639-2.3954l-.1082.036a2.926 2.926 0 0 0 -5.7471.7776v23.9679a2.9277 2.9277 0 0 0 5.8553 0v-14.639a5.8553 5.8553 0 1 1 11.7106 0v14.639a2.9285 2.9285 0 0 0 5.8569 0v-14.639a5.8553 5.8553 0 1 1 11.7106 0v14.639a2.9285 2.9285 0 0 0 5.8569 0v-14.639a11.7124 11.7124 0 0 0 -11.7122-11.7122"/><path d="m186.4524 120.0357a9.048 9.048 0 0 1 -6.3977 2.6572v-.0129a9.0271 9.0271 0 1 1 6.3977-2.6447m-6.3977-21.3111a14.9092 14.9092 0 1 0 10.5458 4.3644 14.9136 14.9136 0 0 0 -10.5458-4.3644"/><path d="m294.995 122.6928a8.7838 8.7838 0 1 1 8.7837-8.7837 8.7846 8.7846 0 0 1 -8.7837 8.7837m13.9461-13.2375a14.6389 14.6389 0 0 0 -22.73-7.2584v-.5393a2.9277 2.9277 0 0 0 -5.8554 0v32.33a2.9277 2.9277 0 1 0 5.8554 0v-8.3676a14.6394 14.6394 0 0 0 22.73-16.1644"/><path d="m116.2618 122.6929a9.0481 9.0481 0 1 1 9.0409-9.0486 9.0505 9.0505 0 0 1 -9.0409 9.0486m11.9866-32.33a2.9288 2.9288 0 0 0 -2.9284 2.9281v8.4906a14.9144 14.9144 0 1 0 0 23.71v.1285a2.9285 2.9285 0 0 0 5.8569 0v-11.4428c-.0125-.18 0-.3622 0-.544v-20.3423a2.9287 2.9287 0 0 0 -2.9284-2.9284"/></g></svg>